<mxfile host="app.diagrams.net" agent="Mozilla/5.0 (Windows NT 10.0; Win64; x64) AppleWebKit/537.36 (KHTML, like Gecko) Chrome/138.0.0.0 Safari/537.36" version="27.0.9">
  <diagram name="Page-1" id="S9B3vxmSOjdh73gSBE9Y">
    <mxGraphModel dx="1111" dy="465" grid="1" gridSize="10" guides="1" tooltips="1" connect="1" arrows="1" fold="1" page="1" pageScale="1" pageWidth="850" pageHeight="1100" math="0" shadow="0">
      <root>
        <mxCell id="0" />
        <mxCell id="1" parent="0" />
        <mxCell id="FyO9KqEAhB6Vg3ERMSdC-7" value="" style="points=[];aspect=fixed;html=1;align=center;shadow=0;dashed=0;fillColor=#FF6A00;strokeColor=none;shape=mxgraph.alibaba_cloud.baas_blockchain_as_a_service;" vertex="1" parent="1">
          <mxGeometry x="130" y="80" width="24.97" height="27.4" as="geometry" />
        </mxCell>
        <mxCell id="FyO9KqEAhB6Vg3ERMSdC-8" value="" style="points=[];aspect=fixed;html=1;align=center;shadow=0;dashed=0;fillColor=#FF6A00;strokeColor=none;shape=mxgraph.alibaba_cloud.baas_blockchain_as_a_service;" vertex="1" parent="1">
          <mxGeometry x="105.03" y="160" width="24.97" height="27.4" as="geometry" />
        </mxCell>
        <mxCell id="FyO9KqEAhB6Vg3ERMSdC-9" value="" style="points=[];aspect=fixed;html=1;align=center;shadow=0;dashed=0;fillColor=#FF6A00;strokeColor=none;shape=mxgraph.alibaba_cloud.baas_blockchain_as_a_service;" vertex="1" parent="1">
          <mxGeometry x="130" y="230" width="24.97" height="27.4" as="geometry" />
        </mxCell>
        <mxCell id="FyO9KqEAhB6Vg3ERMSdC-10" value="" style="points=[];aspect=fixed;html=1;align=center;shadow=0;dashed=0;fillColor=#FF6A00;strokeColor=none;shape=mxgraph.alibaba_cloud.baas_blockchain_as_a_service;" vertex="1" parent="1">
          <mxGeometry x="170" y="130" width="24.97" height="27.4" as="geometry" />
        </mxCell>
        <mxCell id="FyO9KqEAhB6Vg3ERMSdC-11" value="" style="points=[];aspect=fixed;html=1;align=center;shadow=0;dashed=0;fillColor=#FF6A00;strokeColor=none;shape=mxgraph.alibaba_cloud.baas_blockchain_as_a_service;" vertex="1" parent="1">
          <mxGeometry x="220" y="80" width="24.97" height="27.4" as="geometry" />
        </mxCell>
        <mxCell id="FyO9KqEAhB6Vg3ERMSdC-12" value="" style="points=[];aspect=fixed;html=1;align=center;shadow=0;dashed=0;fillColor=#FF6A00;strokeColor=none;shape=mxgraph.alibaba_cloud.baas_blockchain_as_a_service;" vertex="1" parent="1">
          <mxGeometry x="220" y="202.6" width="24.97" height="27.4" as="geometry" />
        </mxCell>
        <mxCell id="FyO9KqEAhB6Vg3ERMSdC-13" value="" style="endArrow=classic;startArrow=classic;html=1;rounded=0;" edge="1" parent="1">
          <mxGeometry width="50" height="50" relative="1" as="geometry">
            <mxPoint x="110" y="160" as="sourcePoint" />
            <mxPoint x="130" y="110" as="targetPoint" />
          </mxGeometry>
        </mxCell>
        <mxCell id="FyO9KqEAhB6Vg3ERMSdC-15" value="" style="endArrow=classic;startArrow=classic;html=1;rounded=0;" edge="1" parent="1" source="FyO9KqEAhB6Vg3ERMSdC-9">
          <mxGeometry width="50" height="50" relative="1" as="geometry">
            <mxPoint x="100" y="241.3" as="sourcePoint" />
            <mxPoint x="120" y="191.3" as="targetPoint" />
          </mxGeometry>
        </mxCell>
        <mxCell id="FyO9KqEAhB6Vg3ERMSdC-16" value="" style="endArrow=classic;startArrow=classic;html=1;rounded=0;" edge="1" parent="1">
          <mxGeometry width="50" height="50" relative="1" as="geometry">
            <mxPoint x="160" y="240" as="sourcePoint" />
            <mxPoint x="214.97" y="217.4" as="targetPoint" />
          </mxGeometry>
        </mxCell>
        <mxCell id="FyO9KqEAhB6Vg3ERMSdC-17" value="" style="endArrow=classic;startArrow=classic;html=1;rounded=0;" edge="1" parent="1">
          <mxGeometry width="50" height="50" relative="1" as="geometry">
            <mxPoint x="220" y="200" as="sourcePoint" />
            <mxPoint x="140" y="180" as="targetPoint" />
          </mxGeometry>
        </mxCell>
        <mxCell id="FyO9KqEAhB6Vg3ERMSdC-18" value="" style="endArrow=classic;startArrow=classic;html=1;rounded=0;" edge="1" parent="1" source="FyO9KqEAhB6Vg3ERMSdC-8">
          <mxGeometry width="50" height="50" relative="1" as="geometry">
            <mxPoint x="150" y="198.7" as="sourcePoint" />
            <mxPoint x="170" y="148.7" as="targetPoint" />
          </mxGeometry>
        </mxCell>
        <mxCell id="FyO9KqEAhB6Vg3ERMSdC-19" value="" style="endArrow=classic;startArrow=classic;html=1;rounded=0;entryX=1.041;entryY=0.839;entryDx=0;entryDy=0;entryPerimeter=0;" edge="1" parent="1" source="FyO9KqEAhB6Vg3ERMSdC-10" target="FyO9KqEAhB6Vg3ERMSdC-7">
          <mxGeometry width="50" height="50" relative="1" as="geometry">
            <mxPoint x="260" y="220" as="sourcePoint" />
            <mxPoint x="280" y="170" as="targetPoint" />
          </mxGeometry>
        </mxCell>
        <mxCell id="FyO9KqEAhB6Vg3ERMSdC-20" value="" style="endArrow=classic;startArrow=classic;html=1;rounded=0;entryX=-0.12;entryY=0.401;entryDx=0;entryDy=0;entryPerimeter=0;" edge="1" parent="1" target="FyO9KqEAhB6Vg3ERMSdC-11">
          <mxGeometry width="50" height="50" relative="1" as="geometry">
            <mxPoint x="160" y="90" as="sourcePoint" />
            <mxPoint x="220" y="100" as="targetPoint" />
          </mxGeometry>
        </mxCell>
        <mxCell id="FyO9KqEAhB6Vg3ERMSdC-21" value="" style="endArrow=classic;startArrow=classic;html=1;rounded=0;" edge="1" parent="1">
          <mxGeometry width="50" height="50" relative="1" as="geometry">
            <mxPoint x="240" y="200" as="sourcePoint" />
            <mxPoint x="240" y="110" as="targetPoint" />
          </mxGeometry>
        </mxCell>
        <mxCell id="FyO9KqEAhB6Vg3ERMSdC-22" value="" style="endArrow=classic;startArrow=classic;html=1;rounded=0;" edge="1" parent="1">
          <mxGeometry width="50" height="50" relative="1" as="geometry">
            <mxPoint x="200" y="140" as="sourcePoint" />
            <mxPoint x="230" y="107.4" as="targetPoint" />
          </mxGeometry>
        </mxCell>
        <mxCell id="FyO9KqEAhB6Vg3ERMSdC-23" value="" style="endArrow=classic;startArrow=classic;html=1;rounded=0;" edge="1" parent="1">
          <mxGeometry width="50" height="50" relative="1" as="geometry">
            <mxPoint x="200" y="150" as="sourcePoint" />
            <mxPoint x="280" y="150" as="targetPoint" />
          </mxGeometry>
        </mxCell>
        <mxCell id="FyO9KqEAhB6Vg3ERMSdC-57" value="" style="rounded=1;whiteSpace=wrap;html=1;strokeColor=#000000;fillColor=#2A38FF;" vertex="1" parent="1">
          <mxGeometry x="310" y="175.2" width="50" height="13.7" as="geometry" />
        </mxCell>
        <mxCell id="FyO9KqEAhB6Vg3ERMSdC-58" value="" style="rounded=1;whiteSpace=wrap;html=1;strokeColor=#000000;fillColor=#2A38FF;" vertex="1" parent="1">
          <mxGeometry x="290" y="161.5" width="50" height="13.7" as="geometry" />
        </mxCell>
        <mxCell id="FyO9KqEAhB6Vg3ERMSdC-59" value="" style="endArrow=classic;startArrow=classic;html=1;rounded=0;exitX=0;exitY=1;exitDx=0;exitDy=0;" edge="1" parent="1" source="FyO9KqEAhB6Vg3ERMSdC-60">
          <mxGeometry width="50" height="50" relative="1" as="geometry">
            <mxPoint x="280" y="241.85000000000002" as="sourcePoint" />
            <mxPoint x="240" y="230" as="targetPoint" />
          </mxGeometry>
        </mxCell>
        <mxCell id="FyO9KqEAhB6Vg3ERMSdC-60" value="" style="rounded=1;whiteSpace=wrap;html=1;strokeColor=#000000;fillColor=#2A38FF;" vertex="1" parent="1">
          <mxGeometry x="290" y="188.89999999999998" width="50" height="13.7" as="geometry" />
        </mxCell>
        <mxCell id="FyO9KqEAhB6Vg3ERMSdC-63" value="" style="rounded=1;whiteSpace=wrap;html=1;strokeColor=#000000;fillColor=#2A38FF;" vertex="1" parent="1">
          <mxGeometry x="310" y="147.8" width="50" height="13.7" as="geometry" />
        </mxCell>
        <mxCell id="FyO9KqEAhB6Vg3ERMSdC-64" value="" style="rounded=1;whiteSpace=wrap;html=1;strokeColor=#000000;fillColor=#2A38FF;" vertex="1" parent="1">
          <mxGeometry x="280" y="134.10000000000002" width="50" height="13.7" as="geometry" />
        </mxCell>
        <mxCell id="FyO9KqEAhB6Vg3ERMSdC-65" value="" style="rounded=1;whiteSpace=wrap;html=1;strokeColor=#000000;fillColor=#2A38FF;" vertex="1" parent="1">
          <mxGeometry x="300" y="118.89999999999999" width="50" height="13.7" as="geometry" />
        </mxCell>
        <mxCell id="FyO9KqEAhB6Vg3ERMSdC-66" value="" style="endArrow=classic;startArrow=classic;html=1;rounded=0;" edge="1" parent="1">
          <mxGeometry width="50" height="50" relative="1" as="geometry">
            <mxPoint x="290" y="120" as="sourcePoint" />
            <mxPoint x="250" y="100" as="targetPoint" />
          </mxGeometry>
        </mxCell>
        <mxCell id="FyO9KqEAhB6Vg3ERMSdC-67" value="" style="points=[];aspect=fixed;html=1;align=center;shadow=0;dashed=0;fillColor=#FF6A00;strokeColor=none;shape=mxgraph.alibaba_cloud.baas_blockchain_as_a_service;" vertex="1" parent="1">
          <mxGeometry x="370" y="80" width="24.97" height="27.4" as="geometry" />
        </mxCell>
        <mxCell id="FyO9KqEAhB6Vg3ERMSdC-68" value="" style="endArrow=classic;startArrow=classic;html=1;rounded=0;entryX=-0.08;entryY=0.474;entryDx=0;entryDy=0;entryPerimeter=0;" edge="1" parent="1" target="FyO9KqEAhB6Vg3ERMSdC-67">
          <mxGeometry width="50" height="50" relative="1" as="geometry">
            <mxPoint x="253" y="93.2" as="sourcePoint" />
            <mxPoint x="310" y="94.2" as="targetPoint" />
          </mxGeometry>
        </mxCell>
        <mxCell id="FyO9KqEAhB6Vg3ERMSdC-69" value="" style="points=[];aspect=fixed;html=1;align=center;shadow=0;dashed=0;fillColor=#FF6A00;strokeColor=none;shape=mxgraph.alibaba_cloud.baas_blockchain_as_a_service;" vertex="1" parent="1">
          <mxGeometry x="425" y="127.25" width="24.97" height="27.4" as="geometry" />
        </mxCell>
        <mxCell id="FyO9KqEAhB6Vg3ERMSdC-70" value="" style="points=[];aspect=fixed;html=1;align=center;shadow=0;dashed=0;fillColor=#FF6A00;strokeColor=none;shape=mxgraph.alibaba_cloud.baas_blockchain_as_a_service;" vertex="1" parent="1">
          <mxGeometry x="480" y="80" width="24.97" height="27.4" as="geometry" />
        </mxCell>
        <mxCell id="FyO9KqEAhB6Vg3ERMSdC-71" value="" style="points=[];aspect=fixed;html=1;align=center;shadow=0;dashed=0;fillColor=#FF6A00;strokeColor=none;shape=mxgraph.alibaba_cloud.baas_blockchain_as_a_service;" vertex="1" parent="1">
          <mxGeometry x="480" y="168.35" width="24.97" height="27.4" as="geometry" />
        </mxCell>
        <mxCell id="FyO9KqEAhB6Vg3ERMSdC-72" value="" style="endArrow=classic;startArrow=classic;html=1;rounded=0;exitX=0.04;exitY=0.1;exitDx=0;exitDy=0;exitPerimeter=0;" edge="1" parent="1" source="FyO9KqEAhB6Vg3ERMSdC-69">
          <mxGeometry width="50" height="50" relative="1" as="geometry">
            <mxPoint x="434.97" y="118.9" as="sourcePoint" />
            <mxPoint x="394.97" y="98.9" as="targetPoint" />
          </mxGeometry>
        </mxCell>
      </root>
    </mxGraphModel>
  </diagram>
</mxfile>
